<?xml version="1.0" encoding="utf-8"?>
<!-- Generator: Adobe Illustrator 24.0.0, SVG Export Plug-In . SVG Version: 6.00 Build 0)  -->
<svg version="1.1" id="Capa_1" xmlns="http://www.w3.org/2000/svg" xmlns:xlink="http://www.w3.org/1999/xlink" x="0px" y="0px"
	 viewBox="0 0 640 640" style="enable-background:new 0 0 640 640;" xml:space="preserve">
<style type="text/css">
	.st0{fill:#FFFFFF;}
</style>
<path class="st0" d="M629,320.2c0-170.7-138.3-309-309-309S11,149.5,11,320.2c0,144.8,99.8,266.5,234.4,299.9V414.6h-63.7v-94.4
	h63.7v-40.7c0-105.1,47.6-153.9,150.9-153.9c19.6,0,53.4,3.9,67.2,7.7v85.5c-7.2-0.7-19.9-1.2-35.7-1.2c-50.7,0-70.2,19.2-70.2,69
	v33.6h100.9l-17.4,94.4h-83.6v212.3C510.5,608.4,629,478.2,629,320.2z"/>
</svg>
