<?xml version="1.0" encoding="utf-8"?>
<!-- Generator: Adobe Illustrator 24.0.0, SVG Export Plug-In . SVG Version: 6.00 Build 0)  -->
<svg version="1.1" id="Capa_1" xmlns="http://www.w3.org/2000/svg" xmlns:xlink="http://www.w3.org/1999/xlink" x="0px" y="0px"
	 viewBox="0 0 640 640" style="enable-background:new 0 0 640 640;" xml:space="preserve">
<style type="text/css">
	.st0{fill:#FFFFFF;}
</style>
<path class="st0" d="M320.3,165.1c-85.6-0.3-155.1,69-155.3,154.5S234,474.7,319.5,475c85.6,0.3,155.1-69,155.3-154.5
	C475.1,234.9,405.9,165.4,320.3,165.1z M319.5,219.5c55.5-0.3,100.6,44.6,100.9,100.1c0.3,55.5-44.6,100.6-100.1,100.9
	c-55.5,0.3-100.6-44.6-100.9-100.1S264,219.8,319.5,219.5z M445.3,158.8c0-19.9,16.2-36.1,36.1-36.1c19.9,0,36.1,16.2,36.1,36.1
	s-16.2,36.1-36.1,36.1C461.5,194.9,445.3,178.7,445.3,158.8z M620.1,195.4c-2.3-48.4-13.3-91.2-48.8-126.5
	C536,33.6,493.2,22.5,444.8,20.1c-49.9-2.8-199.3-2.8-249.1,0c-48.2,2.3-91.1,13.3-126.5,48.6s-46.3,78.1-48.8,126.5
	c-2.8,49.9-2.8,199.3,0,249.1c2.3,48.4,13.3,91.2,48.8,126.5c35.4,35.3,78.1,46.3,126.5,48.8c49.9,2.8,199.3,2.8,249.1,0
	c48.4-2.3,91.2-13.3,126.5-48.8c35.3-35.3,46.3-78.1,48.8-126.5C622.9,394.5,622.9,245.3,620.1,195.4z M555.7,497.9
	c-10.5,26.4-30.9,46.8-57.4,57.4c-39.7,15.8-134.1,12.1-178,12.1s-138.4,3.5-178-12.1c-26.4-10.5-46.8-30.9-57.4-57.4
	c-15.8-39.7-12.1-134.1-12.1-178s-3.5-138.4,12.1-178c10.5-26.4,30.9-46.8,57.4-57.4c39.7-15.8,134.1-12.1,178-12.1
	s138.4-3.5,178,12.1c26.4,10.5,46.8,30.9,57.4,57.4c15.8,39.7,12.1,134.1,12.1,178S571.5,458.3,555.7,497.9z"/>
</svg>
